# xmcd
#
# Track frame offsets: 
#        150
#        11267
#        21402
#        31694
#        42193
#        53705
#        64305
#        72814
#        86903
#        97759
#        107085
#        118117
#        129840
#        139452
#        150032
#        160255
#        168578
#        177783
#        187222
#        195325
#
# Disc length: 2748 seconds
#
# Revision: 0
# Processed by: cddbd v1.5.2PL0 Copyright (c) Steve Scherf et al.
# Submitted via: ExactAudioCopy v0.99pb5
#
DISCID=010aba14
DTITLE=Everly Brothers  - 100 Hits Legends - CD 2
DYEAR=1900
DGENRE=
TTITLE0=Cathys Clown
TTITLE1=Temptation
TTITLE2=Rip It Up
TTITLE3=Walk Right Back
TTITLE4=Lucille
TTITLE5=Muskrat
TTITLE6=Stick With Me Baby
TTITLE7=Ebony Eyes
TTITLE8=Sleepless Nights
TTITLE9=Like Strangers
TTITLE10=Dont Blame Me
TTITLE11=So Sad
TTITLE12=A Change Of Heart
TTITLE13=Baby What You Want Me To Do
TTITLE14=Donna Donna
TTITLE15=Love Is Where You Find It
TTITLE16=Bully Of The Town
TTITLE17=Chlo-e
TTITLE18=Hi Lili Hi Lo
TTITLE19=Little Old Lady
EXTD=
EXTT0=
EXTT1=
EXTT2=
EXTT3=
EXTT4=
EXTT5=
EXTT6=
EXTT7=
EXTT8=
EXTT9=
EXTT10=
EXTT11=
EXTT12=
EXTT13=
EXTT14=
EXTT15=
EXTT16=
EXTT17=
EXTT18=
EXTT19=
PLAYORDER=
